<svg width="92" height="56" viewBox="0 0 92 56" fill="none" xmlns="http://www.w3.org/2000/svg">
<rect x="0.5" y="0.5" width="91" height="55" rx="4.5" stroke="#8A38F5" stroke-dasharray="10 5"/>
<path d="M23.3333 34V23.3333C23.3333 22.9797 23.4738 22.6406 23.7238 22.3905C23.9739 22.1405 24.313 22 24.6666 22H31.3333C31.6869 22 32.0261 22.1405 32.2761 22.3905C32.5262 22.6406 32.6666 22.9797 32.6666 23.3333V34L28.7213 31.4633C28.5062 31.3249 28.2558 31.2514 28 31.2514C27.7442 31.2514 27.4938 31.3249 27.2786 31.4633L23.3333 34Z" stroke="#8C8EA4" stroke-linecap="round" stroke-linejoin="round"/>
<path d="M59.3333 34V23.3333C59.3333 22.9797 59.4738 22.6406 59.7238 22.3905C59.9739 22.1405 60.313 22 60.6666 22H67.3333C67.6869 22 68.0261 22.1405 68.2761 22.3905C68.5262 22.6406 68.6666 22.9797 68.6666 23.3333V34L64.7213 31.4633C64.5062 31.3249 64.2558 31.2514 64 31.2514C63.7442 31.2514 63.4938 31.3249 63.2786 31.4633L59.3333 34Z" fill="#8C8EA4" stroke="#8C8EA4" stroke-linecap="round" stroke-linejoin="round"/>
</svg>
