<svg width="100%" height="100%" viewBox="0 0 24 24" fill="none" xmlns="http://www.w3.org/2000/svg">
	<path
		d="M5 18.75V5.25C5 4.65326 5.23047 4.08097 5.6407 3.65901C6.05094 3.23705 6.60734 3 7.1875 3H18.125C18.3571 3 18.5796 3.09482 18.7437 3.2636C18.9078 3.43239 19 3.66131 19 3.9V20.1C19 20.3387 18.9078 20.5676 18.7437 20.7364C18.5796 20.9052 18.3571 21 18.125 21H7.1875C6.60734 21 6.05094 20.7629 5.6407 20.341C5.23047 19.919 5 19.3467 5 18.75ZM5 18.75C5 18.1533 5.23047 17.581 5.6407 17.159C6.05094 16.7371 6.60734 16.5 7.1875 16.5H19"
    stroke="currentColor"
		strokeWidth="1.5"
    strokeLinecap="round"
    strokeLinejoin="round"
  />
</svg>
