<svg width="100%" height="100%" viewBox="0 0 30 30" fill="none" xmlns="http://www.w3.org/2000/svg">
<path d="M3.75 12.5C3.75 7.78625 3.75 5.42875 5.215 3.965C6.67875 2.5 9.03625 2.5 13.75 2.5H16.25C20.9637 2.5 23.3212 2.5 24.785 3.965C26.25 5.42875 26.25 7.78625 26.25 12.5V17.5C26.25 22.2137 26.25 24.5712 24.785 26.035C23.3212 27.5 20.9637 27.5 16.25 27.5H13.75C9.03625 27.5 6.67875 27.5 5.215 26.035C3.75 24.5712 3.75 22.2137 3.75 17.5V12.5Z" stroke="currentColor" stroke-width="1.5"/>
<path d="M7.5 15C7.5 13.2325 7.5 12.3487 8.05 11.8C8.5975 11.25 9.48125 11.25 11.25 11.25H18.75C20.5175 11.25 21.4012 11.25 21.95 11.8C22.5 12.3487 22.5 13.2325 22.5 15V20C22.5 21.7675 22.5 22.6512 21.95 23.2C21.4012 23.75 20.5175 23.75 18.75 23.75H11.25C9.4825 23.75 8.59875 23.75 8.05 23.2C7.5 22.6525 7.5 21.7687 7.5 20V15Z" fill="currentColor" stroke="currentColor" stroke-width="1.5"/>
<path d="M8.75 7.5H15" stroke="currentColor" stroke-width="1.5" stroke-linecap="round"/>
</svg>
