<svg width="24" height="24" viewBox="0 0 24 24" fill="none" xmlns="http://www.w3.org/2000/svg">
<path d="M15.0301 17L12.0001 20L4.50006 12.572C4.00536 12.0906 3.6157 11.512 3.3556 10.8726C3.09551 10.2333 2.97062 9.54695 2.98879 8.85693C3.00697 8.16692 3.16782 7.48814 3.46121 6.86334C3.75461 6.23854 4.17419 5.68126 4.69354 5.22658C5.21289 4.77191 5.82076 4.42969 6.47887 4.22148C7.13697 4.01327 7.83106 3.94359 8.51743 4.0168C9.20379 4.09002 9.86756 4.30456 10.4669 4.64691C11.0663 4.98926 11.5883 5.452 12.0001 6.006C12.3984 5.47945 12.8971 5.03702 13.4674 4.70423C14.0376 4.37144 14.6681 4.1549 15.3225 4.06709C15.9769 3.97927 16.6422 4.02194 17.28 4.19262C17.9178 4.3633 18.5155 4.65862 19.0386 5.06152C19.5617 5.46442 19.9998 5.96694 20.3276 6.54005C20.6555 7.11317 20.8665 7.74554 20.9487 8.40067C21.0308 9.0558 20.9824 9.72071 20.8062 10.357C20.63 10.9933 20.3295 11.5884 19.9221 12.108M19.0001 16V19M19.0001 22V22.01" stroke="#F5F5FA" stroke-linecap="round" stroke-linejoin="round"/>
</svg>
