<svg width="100%" height="100%" viewBox="0 0 20 20" fill="none" xmlns="http://www.w3.org/2000/svg">
<path d="M13.9133 2.5C12.21 2.5 10.7391 3.4975 9.99996 4.9525C9.26079 3.4975 7.78996 2.5 6.08663 2.5C3.64496 2.5 1.66663 4.5475 1.66663 7.0675C1.66663 9.5875 3.18079 11.8975 5.13746 13.795C7.09413 15.6925 9.99996 17.5 9.99996 17.5C9.99996 17.5 12.8116 15.7225 14.8625 13.795C17.05 11.74 18.3333 9.595 18.3333 7.0675C18.3333 4.54 16.355 2.5 13.9133 2.5Z" fill="currentColor"/>
<path d="M13.9133 2.5C12.21 2.5 10.7391 3.4975 9.99996 4.9525C9.26079 3.4975 7.78996 2.5 6.08663 2.5C3.64496 2.5 1.66663 4.5475 1.66663 7.0675C1.66663 9.5875 3.18079 11.8975 5.13746 13.795C7.09413 15.6925 9.99996 17.5 9.99996 17.5C9.99996 17.5 12.8116 15.7225 14.8625 13.795C17.05 11.74 18.3333 9.595 18.3333 7.0675C18.3333 4.54 16.355 2.5 13.9133 2.5Z" fill="currentColor"/>
</svg>
