<svg width="100%" height="100%" viewBox="0 0 24 24" fill="none" xmlns="http://www.w3.org/2000/svg">
<path d="M15 10L14.26 9.877C14.2421 9.98444 14.2479 10.0945 14.2769 10.1995C14.3058 10.3045 14.3573 10.4019 14.4277 10.485C14.4982 10.568 14.5858 10.6348 14.6847 10.6806C14.7835 10.7263 14.8911 10.75 15 10.75V10ZM4 10V9.25C3.80109 9.25 3.61032 9.32902 3.46967 9.46967C3.32902 9.61032 3.25 9.80109 3.25 10H4ZM6 20.75H17.36V19.25H6V20.75ZM18.56 9.25H15V10.75H18.56V9.25ZM15.74 10.123L16.546 5.288L15.066 5.041L14.26 9.877L15.74 10.123ZM14.82 3.25H14.606V4.75H14.819L14.82 3.25ZM11.485 4.92L8.97 8.693L10.218 9.525L12.733 5.752L11.485 4.92ZM7.93 9.25H4V10.75H7.93V9.25ZM3.25 10V18H4.75V10H3.25ZM20.057 18.54L21.257 12.54L19.787 12.245L18.587 18.245L20.057 18.54ZM8.97 8.693C8.8559 8.86428 8.70127 9.00375 8.51985 9.10091C8.33842 9.19808 8.13581 9.24895 7.93 9.249V10.749C8.85 10.749 9.708 10.29 10.218 9.525L8.97 8.693ZM16.546 5.288C16.5877 5.03737 16.5743 4.77967 16.5067 4.53474C16.4392 4.28982 16.3191 4.06253 16.1549 3.86869C15.9906 3.67485 15.7861 3.51909 15.5556 3.41225C15.3251 3.30541 15.0741 3.25004 14.82 3.25L14.819 4.75C14.8552 4.75009 14.892 4.75806 14.9249 4.77336C14.9578 4.78866 14.9869 4.81092 15.0103 4.8386C15.0337 4.86628 15.0508 4.89872 15.0604 4.93367C15.07 4.96862 15.0719 5.00524 15.066 5.041L16.546 5.288ZM18.56 10.749C19.35 10.749 19.94 11.471 19.786 12.244L21.257 12.539C21.3366 12.1401 21.3267 11.7275 21.228 11.3329C21.1293 10.9383 20.9443 10.5705 20.6864 10.256C20.4284 9.94146 20.1039 9.6881 19.7362 9.51415C19.3685 9.3402 18.9668 9.24998 18.56 9.25V10.749ZM17.36 20.75C17.9957 20.7501 18.6118 20.529 19.1035 20.1261C19.5952 19.7232 19.9322 19.1623 20.057 18.539L18.587 18.244C18.5303 18.5276 18.377 18.7828 18.1533 18.966C17.9296 19.1493 17.6492 19.2503 17.36 19.25V20.75ZM14.606 3.25C13.9887 3.25005 13.3809 3.4015 12.8366 3.69282C12.2923 3.98415 11.8284 4.40533 11.486 4.919L12.733 5.752C12.9385 5.44366 13.2171 5.18986 13.5438 5.01506C13.8706 4.84025 14.2354 4.74986 14.606 4.75V3.25ZM6 19.25C5.31 19.25 4.75 18.69 4.75 18H3.25C3.25 18.7293 3.53973 19.4288 4.05546 19.9445C4.57118 20.4603 5.27065 20.75 6 20.75V19.25Z" fill="currentColor"/>
<path d="M8 10V20" stroke="currentColor" stroke-width="1.5"/>
</svg>
