<svg width="100%" height="100%" viewBox="0 0 18 24" fill="none" xmlns="http://www.w3.org/2000/svg">
<path fill-rule="evenodd" clip-rule="evenodd" d="M3.04762 6.80956C3.04762 3.52146 5.71191 0.857178 9 0.857178C12.2881 0.857178 14.9524 3.52146 14.9524 6.80956V10.381H15.4286C16.4762 10.381 17.3333 11.2381 17.3333 12.2857V20.6191C17.3333 22.1905 16.0476 23.4762 14.4762 23.4762H3.52381C1.95239 23.4762 0.666672 22.1905 0.666672 20.6191V12.2857C0.666672 11.2381 1.52381 10.381 2.57143 10.381H3.04762V6.80956ZM12.5714 6.80956V10.381H5.42858V6.80956C5.42858 4.83575 7.0262 3.23813 9 3.23813C10.9738 3.23813 12.5714 4.83575 12.5714 6.80956ZM9 13.0596C8.5266 13.0591 8.06714 13.2198 7.69731 13.5153C7.32747 13.8109 7.06931 14.2235 6.96536 14.6854C6.8614 15.1473 6.91784 15.6307 7.12538 16.0562C7.33292 16.4817 7.67919 16.8238 8.10715 17.0262V19.9048C8.10715 20.1416 8.20122 20.3687 8.36866 20.5361C8.5361 20.7036 8.7632 20.7977 9 20.7977C9.23681 20.7977 9.46391 20.7036 9.63135 20.5361C9.79879 20.3687 9.89286 20.1416 9.89286 19.9048V17.0262C10.3208 16.8238 10.6671 16.4817 10.8746 16.0562C11.0822 15.6307 11.1386 15.1473 11.0347 14.6854C10.9307 14.2235 10.6725 13.8109 10.3027 13.5153C9.93287 13.2198 9.47341 13.0591 9 13.0596Z" fill="currentColor"/>
</svg>
