<svg width="100%" height="100%" viewBox="0 0 16 16" fill="none" xmlns="http://www.w3.org/2000/svg">
<path d="M7.99998 2H2.66665C2.31302 2 1.97389 2.14048 1.72384 2.39052C1.47379 2.64057 1.33331 2.97971 1.33331 3.33333V14.1907C1.33333 14.2843 1.36109 14.3758 1.4131 14.4536C1.46511 14.5314 1.53903 14.5921 1.62552 14.6279C1.712 14.6637 1.80716 14.6731 1.89897 14.6548C1.99078 14.6366 2.07512 14.5915 2.14131 14.5253L3.60931 13.0573C3.8593 12.8073 4.19839 12.6667 4.55198 12.6667H13.3333C13.6869 12.6667 14.0261 12.5262 14.2761 12.2761C14.5262 12.0261 14.6666 11.687 14.6666 11.3333V8.66667M10.6666 2H14.6666M14.6666 2V6M14.6666 2L10.6666 6" stroke="currentColor" stroke-linecap="round" stroke-linejoin="round"/>
</svg>
