<svg width="100%" height="100%" viewBox="0 0 24 24" fill="none" xmlns="http://www.w3.org/2000/svg">
<path d="M21.8862 7.70126L16.2987 2.11382C16.1162 1.93132 15.8762 1.97257 15.765 2.20507L15.0162 3.76505L20.2349 8.98375L21.7949 8.23501C22.0274 8.12376 22.0687 7.88251 21.8862 7.70126ZM14.0188 4.64379L8.87505 5.07254C8.53381 5.11504 8.24881 5.18754 8.15006 5.63378C6.75507 12.3337 2.00012 18.8736 2.00012 18.8736L3.12011 19.9936L8.43256 14.6812C8.24192 14.2821 8.19851 13.8284 8.31001 13.4004C8.42151 12.9724 8.68074 12.5975 9.04188 12.3422C9.40301 12.0868 9.84281 11.9673 10.2835 12.0048C10.7242 12.0424 11.1375 12.2345 11.4503 12.5472C11.763 12.86 11.9551 13.2733 11.9927 13.714C12.0302 14.1547 11.9107 14.5945 11.6553 14.9556C11.3999 15.3167 11.0251 15.576 10.5971 15.6875C10.1691 15.799 9.71541 15.7556 9.3163 15.5649L4.00385 20.8774L5.12384 21.9974C5.12384 21.9974 11.6625 17.2424 18.3625 15.8474C18.8087 15.7499 18.8825 15.4649 18.925 15.1224L19.3537 9.97874L14.0175 4.64254L14.0188 4.64379Z" fill="currentColor"/>
</svg>
