<svg width="100%" height="100%" viewBox="0 0 24 24" fill="none" xmlns="http://www.w3.org/2000/svg">
<path d="M12.7073 20.8915L20.7583 12.7445C20.8316 12.6702 20.8927 12.5621 20.9351 12.4314C20.9776 12.3006 21 12.1519 21 12.0005C21 11.8491 20.9776 11.7004 20.9351 11.5697C20.8927 11.439 20.8316 11.3309 20.7583 11.2566L12.7073 3.10954C12.635 3.03647 12.5534 2.99872 12.4705 3.00003C12.3876 3.00135 12.3064 3.04169 12.2348 3.11704C12.1633 3.19238 12.104 3.30011 12.0628 3.4295C12.0216 3.55889 11.9999 3.70543 12 3.85454V20.1465C12 20.2955 12.0218 20.442 12.063 20.5712C12.1042 20.7004 12.1636 20.808 12.2351 20.8832C12.3066 20.9585 12.3878 20.9987 12.4707 21C12.5535 21.0012 12.6351 20.9646 12.7073 20.8915Z" fill="#FCFCFD"/>
<path d="M3.70731 20.8915L11.7583 12.7445C11.8316 12.6702 11.8927 12.5621 11.9351 12.4314C11.9776 12.3006 12 12.1519 12 12.0005C12 11.8491 11.9776 11.7004 11.9351 11.5697C11.8927 11.439 11.8316 11.3309 11.7583 11.2566L3.70731 3.10954C3.63505 3.03647 3.55341 2.99872 3.47051 3.00003C3.38762 3.00135 3.30637 3.04169 3.23483 3.11704C3.1633 3.19238 3.10398 3.30011 3.06278 3.4295C3.02158 3.55889 2.99994 3.70543 3 3.85454V20.1465C3.00004 20.2955 3.02176 20.442 3.063 20.5712C3.10424 20.7004 3.16357 20.808 3.23509 20.8832C3.3066 20.9585 3.38782 20.9987 3.47066 21C3.55351 21.0012 3.63509 20.9646 3.70731 20.8915Z" fill="#FCFCFD"/>
</svg>
