<svg width="24" height="24" viewBox="0 0 24 24" fill="none" xmlns="http://www.w3.org/2000/svg">
<path d="M20.4467 2C21.2173 2 21.8598 2.58132 21.9056 3.35059C22.0628 5.98881 22.2084 11.8644 20.7152 15.25C19.2077 18.668 14.4472 21.6223 12.6742 22.6309C12.2537 22.87 11.746 22.87 11.3256 22.6309C9.55252 21.6223 4.792 18.668 3.28455 15.25C1.79141 11.8644 1.93696 5.98879 2.09412 3.35059C2.13994 2.58132 2.78247 2 3.5531 2H20.4467ZM12.0004 6.25C11.5862 6.25 11.2504 6.58579 11.2504 7V10.5674L8.38513 8.85645C8.02967 8.64415 7.56932 8.75998 7.35681 9.11523C7.14449 9.47075 7.26022 9.93109 7.6156 10.1436L10.807 12.0498L8.95837 13.9814C8.67211 14.2806 8.68269 14.7556 8.98181 15.042C9.28102 15.3281 9.75602 15.3176 10.0424 15.0186L12.0004 12.9727L13.9584 15.0186C14.2448 15.3175 14.7198 15.3282 15.0189 15.042C15.3178 14.7556 15.3284 14.2806 15.0424 13.9814L13.1927 12.0498L16.3851 10.1436C16.7402 9.93105 16.8561 9.47064 16.6439 9.11523C16.4315 8.75995 15.9711 8.64434 15.6156 8.85645L12.7504 10.5674V7C12.7504 6.58591 12.4144 6.2502 12.0004 6.25Z" fill="#E43D87"/>
</svg>
