<svg width="24" height="24" viewBox="0 0 24 24" fill="none" xmlns="http://www.w3.org/2000/svg">
<path d="M10.9136 13.0852C10.7224 12.8945 10.4947 12.7444 10.244 12.644L2.31399 9.464C2.21931 9.42601 2.13851 9.35997 2.08245 9.27473C2.02638 9.18949 1.99773 9.08915 2.00035 8.98716C2.00296 8.88517 2.03671 8.78643 2.09706 8.70417C2.15741 8.62192 2.24148 8.5601 2.33799 8.527L21.338 2.027C21.4266 1.995 21.5225 1.98889 21.6144 2.00939C21.7064 2.0299 21.7906 2.07616 21.8572 2.14278C21.9238 2.2094 21.9701 2.29361 21.9906 2.38556C22.0111 2.47751 22.005 2.5734 21.973 2.662L15.473 21.662C15.4399 21.7585 15.3781 21.8426 15.2958 21.9029C15.2136 21.9633 15.1148 21.997 15.0128 21.9996C14.9108 22.0023 14.8105 21.9736 14.7253 21.9175C14.64 21.8615 14.574 21.7807 14.536 21.686L11.356 13.754C11.2552 13.5035 11.1047 13.276 10.9136 13.0852ZM10.9136 13.0852L21.854 2.147" stroke="black" stroke-width="1.5" stroke-linecap="round" stroke-linejoin="round"/>
</svg>
