<?xml version="1.0" encoding="utf-8"?>
<svg xmlns="http://www.w3.org/2000/svg" fill="none" height="18" viewBox="0 0 60 18" width="60">
<path d="M16.4584 17.5608C15.7213 17.7405 14.8725 17.6057 14.2247 17.2689C13.4653 16.8647 12.8845 16.2359 12.4378 15.5847C11.5666 14.3047 11.2316 12.7776 10.8742 11.2955C10.5838 10.1502 10.2711 10.6218 10.0477 11.4527C9.668 13.0022 9.60099 14.1924 8.68519 15.5398C8.21611 16.2134 7.59068 16.8647 6.8089 17.2464C6.16113 17.5608 5.33467 17.6731 4.61989 17.4935C3.65941 17.2689 2.78827 16.6626 2.18518 15.944C1.8948 15.6296 1.67143 15.2478 1.4704 14.8661C0.800299 13.6759 0.44291 12.351 0.241879 11.026C-0.00382541 9.38673 -0.0261622 7.70251 0.0185114 6.04074C0.0631849 4.71582 0.152532 3.34599 0.576931 2.06598C0.777962 1.41475 1.13535 0.673688 1.78312 0.336844C2.25219 0.067368 2.85528 0 3.4137 0C4.03913 0 4.6869 0.112281 5.28999 0.336844C5.82608 0.516494 6.33982 0.898251 6.56319 1.36983C7.479 3.18879 6.2058 6.57969 5.89309 9.16217C5.98243 10.5095 6.76422 10.1502 7.07694 9.40919C7.56835 8.19655 7.97041 6.13057 8.41714 4.91793C8.66285 4.24424 8.90855 3.54809 9.44464 3.05406C10.0031 2.53756 10.7178 2.58247 11.3433 2.87441C11.7007 3.05406 11.9687 3.36844 12.1474 3.70529C13.1302 5.50179 13.1302 7.41058 13.8673 9.38673C14.113 10.0829 14.9842 10.1278 15.0512 9.22954C14.9618 6.66952 13.7333 4.13196 14.4704 1.5944C14.5598 1.30246 14.7831 1.05545 15.0065 0.853339C15.4532 0.42667 16.1457 0.247019 16.7711 0.134737C17.5752 0 18.4687 0 19.2058 0.314388C19.6525 0.494038 19.9653 0.875795 20.1886 1.25755C20.546 1.88633 20.7024 2.58247 20.8364 3.27862C21.0374 4.4688 21.1044 5.68144 21.1268 6.87163C21.1491 8.78041 21.0598 10.7117 20.5684 12.5531C20.278 13.6759 19.8312 14.7987 19.1165 15.7643C18.491 16.5952 17.5082 17.3138 16.4584 17.5608Z" fill="white"/>
<path d="M27.2087 17.5384C26.4715 17.7405 25.6451 17.7405 24.908 17.4935C24.5729 17.3812 24.2379 17.1791 23.9698 16.9096C23.7688 16.7075 23.6124 16.438 23.5008 16.1461C23.2104 15.4275 23.0987 14.6415 22.9647 13.8555C22.7413 12.5082 22.652 11.1383 22.5179 9.79095C22.3616 8.28637 22.2276 6.75935 22.1159 5.25477C22.0489 4.58108 22.0265 3.9074 22.0712 3.23371C22.1159 2.76212 22.1605 2.29054 22.3392 1.86387C23.121 0.022456 26.1588 -0.112283 27.4767 1.05545C27.9234 1.4372 28.1245 2.04352 28.2585 2.60493C28.6382 4.15442 28.5489 5.77127 28.6606 7.36566C28.6606 7.47795 28.6829 7.8597 28.7052 8.19655C28.7276 8.19655 28.7499 8.19655 28.7499 8.19655C29.7104 8.10672 30.6709 8.15164 31.6313 8.17409C31.6313 8.17409 31.6537 8.17409 31.676 8.17409C31.676 6.33268 31.743 4.4688 32.1228 2.64984C32.2344 2.13335 32.4131 1.5944 32.7929 1.21264C33.2396 0.741058 33.9097 0.449126 34.5798 0.3593C35.4063 0.247019 36.3221 0.202105 37.0815 0.516494C37.4613 0.673688 37.8186 0.920707 38.0197 1.25755C38.2877 1.68422 38.3771 2.20072 38.3771 2.71721C38.3771 4.60354 37.8856 6.48987 37.5283 8.35374C37.1039 10.6443 36.8805 12.9797 36.3221 15.2254C36.1657 15.8317 36.0094 16.4829 35.6073 16.9545C35.4509 17.1342 35.2276 17.2689 35.0042 17.3587C34.3118 17.6507 32.9045 17.6731 32.3461 17.1791C31.4973 16.4605 31.3633 13.6085 31.2963 12.4183C31.2516 12.4183 31.207 12.4408 31.1623 12.4183C30.4252 12.3959 29.688 12.3959 28.9509 12.3734C28.9286 12.6429 28.8839 12.9124 28.8839 13.0247C28.7946 14.0127 28.7499 15.0233 28.5265 16.0113C28.4372 16.3706 28.2808 16.7524 28.0351 17.0443C27.8341 17.2913 27.5214 17.471 27.2087 17.5384Z" fill="white"/>
<path d="M43.7981 17.9875C40.3582 18.2121 39.9338 15.3826 39.5541 11.9018C39.3084 9.72358 38.5936 2.78458 40.1572 1.25755C41.6091 -0.134739 45.0043 -0.112283 46.0988 1.57194C47.0593 3.07651 46.2775 9.63375 46.2328 11.4303C46.1658 14.2597 46.5902 17.8078 43.7981 17.9875Z" fill="white"/>
<path d="M52.8408 17.3587C50.5401 18.4366 48.8425 18.01 48.3958 15.652C47.748 12.4408 47.1003 3.88494 49.0212 1.21264C49.7807 0.179649 52.7515 0.134737 54.047 0.112281C56.236 0.112281 59.8546 0.247019 59.9886 1.81896C60.0333 2.60493 59.9663 4.96284 59.4302 5.52425C58.6037 6.40004 53.7343 5.18741 53.4216 6.35513C52.9302 8.15164 56.102 7.00636 57.7996 7.76988C58.9834 8.30883 58.8941 10.8913 57.8666 11.6773C57.2412 12.1489 54.8958 11.9243 54.114 11.9018C53.5333 11.8794 53.4216 12.3285 53.4216 12.9124C53.4439 14.372 54.1587 16.7524 52.8408 17.3587Z" fill="white"/>
</svg>
