<svg width="188" height="59" viewBox="0 0 188 59" fill="none" xmlns="http://www.w3.org/2000/svg">
<g clip-path="url(#clip0_6476_25252)">
<path d="M16.2569 59H15.7357C10.1125 59 5.99803 56.4719 3.39218 51.4072C1.13377 47.077 0 41.2949 0 34.0693C0 28.3043 0.585174 22.6673 1.76466 17.1585C2.94416 11.6497 4.23337 7.36219 5.65973 4.30457C6.32719 2.98075 7.52497 1.93023 9.27135 1.16155C11.0177 0.392878 12.8647 0 14.8396 0C16.3757 0 17.8295 0.264765 19.2102 0.794296C20.5908 1.32383 21.7063 2.16937 22.5749 3.33092C23.4435 4.49247 23.8824 6.01274 23.8824 7.88318L23.8367 9.06181C23.7818 9.59988 23.5441 10.7102 23.1418 12.3927C22.5932 14.6133 22.0172 17.2695 21.4228 20.3699C20.8285 23.4702 20.5359 26.2374 20.5359 28.6715C20.5359 30.1918 20.7005 31.4729 21.0388 32.532C21.3771 33.5911 21.944 34.112 22.7578 34.112C23.3064 34.112 23.8458 33.7362 24.367 32.9932C24.8882 32.2501 25.4002 30.9007 25.8848 28.9534C26.2048 27.3563 26.3602 25.7335 26.3602 24.0766V21.8816C26.3602 19.8232 26.5157 18.1578 26.8357 16.8852C27.1283 15.9372 27.814 15.16 28.9021 14.5536C29.9902 13.9472 31.1696 13.6397 32.4406 13.6397C33.6018 13.6397 34.6807 13.9728 35.6773 14.6304C36.6739 15.2881 37.3505 16.4069 37.698 17.9784L38.2649 21.0617C38.6398 24.3413 39.4261 27.5442 40.6147 30.6872C41.5382 32.532 42.48 33.4459 43.44 33.4459C43.9337 33.4459 44.3726 33.164 44.7658 32.5918C45.159 32.0195 45.3967 31.1569 45.479 29.9954L45.5704 27.9627C45.5704 25.9897 45.3967 24.0253 45.0492 22.078C44.7018 20.1307 44.2995 18.192 43.8332 16.2703C43.2846 13.8874 42.8183 11.4959 42.4434 9.07889C42.3885 8.64331 42.352 8.22481 42.352 7.82339C42.352 6.17501 42.8 4.76578 43.696 3.60423C44.5921 2.44267 45.7533 1.56297 47.1705 0.965113C48.5877 0.367255 50.0689 0.0683266 51.605 0.0683266C53.3697 0.0683266 55.0612 0.478286 56.6704 1.30675C58.2796 2.13521 59.514 3.40779 60.3918 5.14157C61.7267 7.98567 62.8239 11.6411 63.6925 16.108C64.5611 20.5748 65 25.204 65 29.9954C65 34.7868 64.4788 39.2109 63.4365 43.4386C62.3941 47.6663 60.6661 51.0827 58.2614 53.7132C55.8567 56.3438 52.6108 57.7189 48.5237 57.8555C46.0001 57.8555 43.4766 56.9673 40.9347 55.1993C38.3929 53.4314 36.0613 50.8094 33.9126 47.3418C33.0166 45.8215 32.3309 44.7283 31.8737 44.0536C31.4714 43.4813 31.1331 43.1995 30.8771 43.1995C30.557 43.1995 30.2553 43.5326 29.9627 44.1902C29.6701 44.8479 29.3135 45.8728 28.8747 47.2564L28.3078 48.8364C26.918 52.6285 25.1716 55.2677 23.0686 56.7538C20.9657 58.2399 18.6981 58.9829 16.266 58.9829L16.2569 59Z" fill="white"/>
<path d="M80.6436 57.7847C77.9749 57.7847 75.4592 57.3087 73.088 56.3483C70.7168 55.388 69.4419 53.9686 69.2465 52.0818C69.085 47.5009 69 42.75 69 37.8205C69 25.4545 69.5354 14.5843 70.6148 5.20991C70.8613 3.80758 71.8642 2.7452 73.6489 2.01429C75.4337 1.28338 77.397 0.926419 79.5473 0.926419C81.8675 0.926419 83.9752 1.35987 85.8875 2.21827C87.7998 3.07666 88.8366 4.41101 88.9981 6.22129C89.0491 7.8361 89.1171 9.39991 89.2021 10.9127C89.3381 13.3095 89.4061 15.8252 89.4061 18.4683L89.3636 21.579C91.4373 21.3325 93.5281 21.171 95.6273 21.0945V19.5222C95.6273 16.6156 95.6953 13.7854 95.8313 11.0402L96.0353 5.86433C96.1713 4.19003 97.2592 2.93218 99.3074 2.06528C101.356 1.19839 103.616 0.773438 106.098 0.773438C108.418 0.773438 110.526 1.14739 112.421 1.9038C114.317 2.66021 115.422 3.79908 115.71 5.3374C115.821 6.60375 115.872 9.73137 115.872 14.7118C115.872 18.9103 115.829 23.6867 115.753 29.0156C115.676 34.3445 115.566 39.0869 115.43 43.2429C115.294 47.3904 115.124 50.0081 114.903 51.079C114.368 52.9402 112.982 54.3851 110.764 55.422C108.546 56.4588 106.234 56.9773 103.837 56.9773C101.84 56.9773 100.098 56.5778 98.602 55.7874C97.1062 54.997 96.2903 53.7307 96.1543 52.0054L96.0693 49.4982C95.9588 46.753 95.9078 44.0333 95.9078 41.3391V39.3589C95.2874 39.3589 94.429 39.3844 93.3241 39.4438C92.0833 39.4948 91.0634 39.5288 90.256 39.5288H89.814L89.7715 41.7896C89.7715 45.2147 89.6271 49.2347 89.3296 53.8751C89.1681 55.1925 88.2417 56.1784 86.5419 56.8243C84.8421 57.4702 82.8789 57.7932 80.6436 57.7932V57.7847Z" fill="white"/>
<path d="M131.981 58C130.369 58 128.791 57.6926 127.255 57.0778C126.412 56.6914 125.727 56.1118 125.209 55.3477C124.691 54.5836 123.182 52.5 122.2 46C121.218 39.5 120.7 30.5369 120.7 19.2075C120.7 15.0884 120.876 11.1187 121.218 7.30709C121.585 4.30345 122.687 2.30981 124.516 1.33495C126.236 0.44791 128.207 0 130.428 0C134.528 0 137.492 0.930951 139.32 2.80164C140.297 3.82919 140.832 5.18171 140.907 6.85039L141.183 15.1587C141.525 21.4207 141.7 27.7002 141.7 33.9885C141.7 44.3168 141.066 51.053 139.796 54.1972C139.27 55.4794 138.377 56.4104 137.133 56.9988C135.463 57.6663 133.743 58 131.973 58H131.981Z" fill="white"/>
<path d="M163.113 56.7129C155.405 60.246 149.718 58.8475 148.222 51.1188C146.052 40.593 143.882 12.5489 150.317 3.78965C152.861 0.40374 162.813 0.256528 167.153 0.182922C174.487 0.182922 186.609 0.624562 187.058 5.77703C187.207 8.35327 186.983 16.082 185.187 17.9221C182.418 20.7928 166.106 16.818 165.058 20.6456C163.412 26.5341 174.038 22.7802 179.725 25.2828C183.691 27.0494 183.391 35.5142 179.949 38.0904C177.854 39.6361 169.997 38.9001 167.378 38.8265C165.432 38.7529 165.058 40.225 165.058 42.1388C165.133 46.9232 167.528 54.7255 163.113 56.7129Z" fill="white"/>
</g>
<defs>
<clipPath id="clip0_6476_25252">
<rect width="188" height="59" fill="white"/>
</clipPath>
</defs>
</svg>
